<svg width="1160" height="1160" viewBox="0 0 1160 1160" xmlns="http://www.w3.org/2000/svg" xmlns:xlink="http://www.w3.org/1999/xlink" id="Layer_1" xml:space="preserve" overflow="hidden"><rect x="0" y="0" width="1160" height="1160" fill="#FFFFFF"/><g transform="translate(80 80)"><g transform="matrix(0.4 0 0 0.4 320 0)"><g fill="#000000"><rect x="0" y="0" width="100" height="100"/></g></g><g transform="matrix(0.4 0 0 0.4 360 0)"><g fill="#000000"><rect x="0" y="0" width="100" height="100"/></g></g><g transform="matrix(0.4 0 0 0.4 400 0)"><g fill="#000000"><rect x="0" y="0" width="100" height="100"/></g></g><g transform="matrix(0.4 0 0 0.4 440 0)"><g fill="#000000"><rect x="0" y="0" width="100" height="100"/></g></g><g transform="matrix(0.4 0 0 0.4 480 0)"><g fill="#000000"><rect x="0" y="0" width="100" height="100"/></g></g><g transform="matrix(0.4 0 0 0.4 560 0)"><g fill="#000000"><rect x="0" y="0" width="100" height="100"/></g></g><g transform="matrix(0.4 0 0 0.4 600 0)"><g fill="#000000"><rect x="0" y="0" width="100" height="100"/></g></g><g transform="matrix(0.4 0 0 0.4 640 0)"><g fill="#000000"><rect x="0" y="0" width="100" height="100"/></g></g><g transform="matrix(0.4 0 0 0.4 360 40)"><g fill="#000000"><rect x="0" y="0" width="100" height="100"/></g></g><g transform="matrix(0.4 0 0 0.4 400 40)"><g fill="#000000"><rect x="0" y="0" width="100" height="100"/></g></g><g transform="matrix(0.4 0 0 0.4 480 40)"><g fill="#000000"><rect x="0" y="0" width="100" height="100"/></g></g><g transform="matrix(0.4 0 0 0.4 520 40)"><g fill="#000000"><rect x="0" y="0" width="100" height="100"/></g></g><g transform="matrix(0.4 0 0 0.4 560 40)"><g fill="#000000"><rect x="0" y="0" width="100" height="100"/></g></g><g transform="matrix(0.4 0 0 0.4 320 80)"><g fill="#000000"><rect x="0" y="0" width="100" height="100"/></g></g><g transform="matrix(0.4 0 0 0.4 400 80)"><g fill="#000000"><rect x="0" y="0" width="100" height="100"/></g></g><g transform="matrix(0.4 0 0 0.4 560 80)"><g fill="#000000"><rect x="0" y="0" width="100" height="100"/></g></g><g transform="matrix(0.4 0 0 0.4 640 80)"><g fill="#000000"><rect x="0" y="0" width="100" height="100"/></g></g><g transform="matrix(0.4 0 0 0.4 400 120)"><g fill="#000000"><rect x="0" y="0" width="100" height="100"/></g></g><g transform="matrix(0.4 0 0 0.4 440 120)"><g fill="#000000"><rect x="0" y="0" width="100" height="100"/></g></g><g transform="matrix(0.4 0 0 0.4 560 120)"><g fill="#000000"><rect x="0" y="0" width="100" height="100"/></g></g><g transform="matrix(0.4 0 0 0.4 640 120)"><g fill="#000000"><rect x="0" y="0" width="100" height="100"/></g></g><g transform="matrix(0.4 0 0 0.4 400 160)"><g fill="#000000"><rect x="0" y="0" width="100" height="100"/></g></g><g transform="matrix(0.4 0 0 0.4 520 160)"><g fill="#000000"><rect x="0" y="0" width="100" height="100"/></g></g><g transform="matrix(0.4 0 0 0.4 560 160)"><g fill="#000000"><rect x="0" y="0" width="100" height="100"/></g></g><g transform="matrix(0.4 0 0 0.4 640 160)"><g fill="#000000"><rect x="0" y="0" width="100" height="100"/></g></g><g transform="matrix(0.4 0 0 0.4 320 200)"><g fill="#000000"><rect x="0" y="0" width="100" height="100"/></g></g><g transform="matrix(0.4 0 0 0.4 360 200)"><g fill="#000000"><rect x="0" y="0" width="100" height="100"/></g></g><g transform="matrix(0.4 0 0 0.4 400 200)"><g fill="#000000"><rect x="0" y="0" width="100" height="100"/></g></g><g transform="matrix(0.4 0 0 0.4 440 200)"><g fill="#000000"><rect x="0" y="0" width="100" height="100"/></g></g><g transform="matrix(0.4 0 0 0.4 480 200)"><g fill="#000000"><rect x="0" y="0" width="100" height="100"/></g></g><g transform="matrix(0.4 0 0 0.4 640 200)"><g fill="#000000"><rect x="0" y="0" width="100" height="100"/></g></g><g transform="matrix(0.4 0 0 0.4 320 240)"><g fill="#000000"><rect x="0" y="0" width="100" height="100"/></g></g><g transform="matrix(0.4 0 0 0.4 400 240)"><g fill="#000000"><rect x="0" y="0" width="100" height="100"/></g></g><g transform="matrix(0.4 0 0 0.4 480 240)"><g fill="#000000"><rect x="0" y="0" width="100" height="100"/></g></g><g transform="matrix(0.4 0 0 0.4 560 240)"><g fill="#000000"><rect x="0" y="0" width="100" height="100"/></g></g><g transform="matrix(0.4 0 0 0.4 640 240)"><g fill="#000000"><rect x="0" y="0" width="100" height="100"/></g></g><g transform="matrix(0.4 0 0 0.4 560 280)"><g fill="#000000"><rect x="0" y="0" width="100" height="100"/></g></g><g transform="matrix(0.4 0 0 0.4 640 280)"><g fill="#000000"><rect x="0" y="0" width="100" height="100"/></g></g><g transform="matrix(0.4 0 0 0.4 0 320)"><g fill="#000000"><rect x="0" y="0" width="100" height="100"/></g></g><g transform="matrix(0.4 0 0 0.4 80 320)"><g fill="#000000"><rect x="0" y="0" width="100" height="100"/></g></g><g transform="matrix(0.4 0 0 0.4 240 320)"><g fill="#000000"><rect x="0" y="0" width="100" height="100"/></g></g><g transform="matrix(0.4 0 0 0.4 280 320)"><g fill="#000000"><rect x="0" y="0" width="100" height="100"/></g></g><g transform="matrix(0.4 0 0 0.4 480 320)"><g fill="#000000"><rect x="0" y="0" width="100" height="100"/></g></g><g transform="matrix(0.4 0 0 0.4 520 320)"><g fill="#000000"><rect x="0" y="0" width="100" height="100"/></g></g><g transform="matrix(0.4 0 0 0.4 560 320)"><g fill="#000000"><rect x="0" y="0" width="100" height="100"/></g></g><g transform="matrix(0.4 0 0 0.4 600 320)"><g fill="#000000"><rect x="0" y="0" width="100" height="100"/></g></g><g transform="matrix(0.4 0 0 0.4 760 320)"><g fill="#000000"><rect x="0" y="0" width="100" height="100"/></g></g><g transform="matrix(0.4 0 0 0.4 880 320)"><g fill="#000000"><rect x="0" y="0" width="100" height="100"/></g></g><g transform="matrix(0.4 0 0 0.4 960 320)"><g fill="#000000"><rect x="0" y="0" width="100" height="100"/></g></g><g transform="matrix(0.4 0 0 0.4 0 360)"><g fill="#000000"><rect x="0" y="0" width="100" height="100"/></g></g><g transform="matrix(0.4 0 0 0.4 40 360)"><g fill="#000000"><rect x="0" y="0" width="100" height="100"/></g></g><g transform="matrix(0.4 0 0 0.4 80 360)"><g fill="#000000"><rect x="0" y="0" width="100" height="100"/></g></g><g transform="matrix(0.4 0 0 0.4 120 360)"><g fill="#000000"><rect x="0" y="0" width="100" height="100"/></g></g><g transform="matrix(0.4 0 0 0.4 200 360)"><g fill="#000000"><rect x="0" y="0" width="100" height="100"/></g></g><g transform="matrix(0.4 0 0 0.4 320 360)"><g fill="#000000"><rect x="0" y="0" width="100" height="100"/></g></g><g transform="matrix(0.4 0 0 0.4 360 360)"><g fill="#000000"><rect x="0" y="0" width="100" height="100"/></g></g><g transform="matrix(0.4 0 0 0.4 400 360)"><g fill="#000000"><rect x="0" y="0" width="100" height="100"/></g></g><g transform="matrix(0.4 0 0 0.4 440 360)"><g fill="#000000"><rect x="0" y="0" width="100" height="100"/></g></g><g transform="matrix(0.4 0 0 0.4 480 360)"><g fill="#000000"><rect x="0" y="0" width="100" height="100"/></g></g><g transform="matrix(0.4 0 0 0.4 520 360)"><g fill="#000000"><rect x="0" y="0" width="100" height="100"/></g></g><g transform="matrix(0.4 0 0 0.4 560 360)"><g fill="#000000"><rect x="0" y="0" width="100" height="100"/></g></g><g transform="matrix(0.4 0 0 0.4 600 360)"><g fill="#000000"><rect x="0" y="0" width="100" height="100"/></g></g><g transform="matrix(0.4 0 0 0.4 680 360)"><g fill="#000000"><rect x="0" y="0" width="100" height="100"/></g></g><g transform="matrix(0.4 0 0 0.4 720 360)"><g fill="#000000"><rect x="0" y="0" width="100" height="100"/></g></g><g transform="matrix(0.4 0 0 0.4 840 360)"><g fill="#000000"><rect x="0" y="0" width="100" height="100"/></g></g><g transform="matrix(0.4 0 0 0.4 880 360)"><g fill="#000000"><rect x="0" y="0" width="100" height="100"/></g></g><g transform="matrix(0.4 0 0 0.4 960 360)"><g fill="#000000"><rect x="0" y="0" width="100" height="100"/></g></g><g transform="matrix(0.4 0 0 0.4 0 400)"><g fill="#000000"><rect x="0" y="0" width="100" height="100"/></g></g><g transform="matrix(0.4 0 0 0.4 40 400)"><g fill="#000000"><rect x="0" y="0" width="100" height="100"/></g></g><g transform="matrix(0.4 0 0 0.4 120 400)"><g fill="#000000"><rect x="0" y="0" width="100" height="100"/></g></g><g transform="matrix(0.4 0 0 0.4 200 400)"><g fill="#000000"><rect x="0" y="0" width="100" height="100"/></g></g><g transform="matrix(0.4 0 0 0.4 240 400)"><g fill="#000000"><rect x="0" y="0" width="100" height="100"/></g></g><g transform="matrix(0.4 0 0 0.4 400 400)"><g fill="#000000"><rect x="0" y="0" width="100" height="100"/></g></g><g transform="matrix(0.4 0 0 0.4 600 400)"><g fill="#000000"><rect x="0" y="0" width="100" height="100"/></g></g><g transform="matrix(0.4 0 0 0.4 640 400)"><g fill="#000000"><rect x="0" y="0" width="100" height="100"/></g></g><g transform="matrix(0.4 0 0 0.4 680 400)"><g fill="#000000"><rect x="0" y="0" width="100" height="100"/></g></g><g transform="matrix(0.4 0 0 0.4 760 400)"><g fill="#000000"><rect x="0" y="0" width="100" height="100"/></g></g><g transform="matrix(0.4 0 0 0.4 840 400)"><g fill="#000000"><rect x="0" y="0" width="100" height="100"/></g></g><g transform="matrix(0.4 0 0 0.4 880 400)"><g fill="#000000"><rect x="0" y="0" width="100" height="100"/></g></g><g transform="matrix(0.4 0 0 0.4 960 400)"><g fill="#000000"><rect x="0" y="0" width="100" height="100"/></g></g><g transform="matrix(0.4 0 0 0.4 0 440)"><g fill="#000000"><rect x="0" y="0" width="100" height="100"/></g></g><g transform="matrix(0.4 0 0 0.4 40 440)"><g fill="#000000"><rect x="0" y="0" width="100" height="100"/></g></g><g transform="matrix(0.4 0 0 0.4 160 440)"><g fill="#000000"><rect x="0" y="0" width="100" height="100"/></g></g><g transform="matrix(0.4 0 0 0.4 200 440)"><g fill="#000000"><rect x="0" y="0" width="100" height="100"/></g></g><g transform="matrix(0.4 0 0 0.4 280 440)"><g fill="#000000"><rect x="0" y="0" width="100" height="100"/></g></g><g transform="matrix(0.4 0 0 0.4 320 440)"><g fill="#000000"><rect x="0" y="0" width="100" height="100"/></g></g><g transform="matrix(0.4 0 0 0.4 400 440)"><g fill="#000000"><rect x="0" y="0" width="100" height="100"/></g></g><g transform="matrix(0.4 0 0 0.4 440 440)"><g fill="#000000"><rect x="0" y="0" width="100" height="100"/></g></g><g transform="matrix(0.4 0 0 0.4 520 440)"><g fill="#000000"><rect x="0" y="0" width="100" height="100"/></g></g><g transform="matrix(0.4 0 0 0.4 640 440)"><g fill="#000000"><rect x="0" y="0" width="100" height="100"/></g></g><g transform="matrix(0.4 0 0 0.4 920 440)"><g fill="#000000"><rect x="0" y="0" width="100" height="100"/></g></g><g transform="matrix(0.4 0 0 0.4 80 480)"><g fill="#000000"><rect x="0" y="0" width="100" height="100"/></g></g><g transform="matrix(0.4 0 0 0.4 120 480)"><g fill="#000000"><rect x="0" y="0" width="100" height="100"/></g></g><g transform="matrix(0.4 0 0 0.4 160 480)"><g fill="#000000"><rect x="0" y="0" width="100" height="100"/></g></g><g transform="matrix(0.4 0 0 0.4 240 480)"><g fill="#000000"><rect x="0" y="0" width="100" height="100"/></g></g><g transform="matrix(0.4 0 0 0.4 320 480)"><g fill="#000000"><rect x="0" y="0" width="100" height="100"/></g></g><g transform="matrix(0.4 0 0 0.4 440 480)"><g fill="#000000"><rect x="0" y="0" width="100" height="100"/></g></g><g transform="matrix(0.4 0 0 0.4 480 480)"><g fill="#000000"><rect x="0" y="0" width="100" height="100"/></g></g><g transform="matrix(0.4 0 0 0.4 520 480)"><g fill="#000000"><rect x="0" y="0" width="100" height="100"/></g></g><g transform="matrix(0.4 0 0 0.4 600 480)"><g fill="#000000"><rect x="0" y="0" width="100" height="100"/></g></g><g transform="matrix(0.4 0 0 0.4 680 480)"><g fill="#000000"><rect x="0" y="0" width="100" height="100"/></g></g><g transform="matrix(0.4 0 0 0.4 720 480)"><g fill="#000000"><rect x="0" y="0" width="100" height="100"/></g></g><g transform="matrix(0.4 0 0 0.4 960 480)"><g fill="#000000"><rect x="0" y="0" width="100" height="100"/></g></g><g transform="matrix(0.4 0 0 0.4 80 520)"><g fill="#000000"><rect x="0" y="0" width="100" height="100"/></g></g><g transform="matrix(0.4 0 0 0.4 200 520)"><g fill="#000000"><rect x="0" y="0" width="100" height="100"/></g></g><g transform="matrix(0.4 0 0 0.4 320 520)"><g fill="#000000"><rect x="0" y="0" width="100" height="100"/></g></g><g transform="matrix(0.4 0 0 0.4 480 520)"><g fill="#000000"><rect x="0" y="0" width="100" height="100"/></g></g><g transform="matrix(0.4 0 0 0.4 600 520)"><g fill="#000000"><rect x="0" y="0" width="100" height="100"/></g></g><g transform="matrix(0.4 0 0 0.4 680 520)"><g fill="#000000"><rect x="0" y="0" width="100" height="100"/></g></g><g transform="matrix(0.4 0 0 0.4 720 520)"><g fill="#000000"><rect x="0" y="0" width="100" height="100"/></g></g><g transform="matrix(0.4 0 0 0.4 880 520)"><g fill="#000000"><rect x="0" y="0" width="100" height="100"/></g></g><g transform="matrix(0.4 0 0 0.4 960 520)"><g fill="#000000"><rect x="0" y="0" width="100" height="100"/></g></g><g transform="matrix(0.4 0 0 0.4 0 560)"><g fill="#000000"><rect x="0" y="0" width="100" height="100"/></g></g><g transform="matrix(0.4 0 0 0.4 40 560)"><g fill="#000000"><rect x="0" y="0" width="100" height="100"/></g></g><g transform="matrix(0.4 0 0 0.4 120 560)"><g fill="#000000"><rect x="0" y="0" width="100" height="100"/></g></g><g transform="matrix(0.4 0 0 0.4 160 560)"><g fill="#000000"><rect x="0" y="0" width="100" height="100"/></g></g><g transform="matrix(0.4 0 0 0.4 200 560)"><g fill="#000000"><rect x="0" y="0" width="100" height="100"/></g></g><g transform="matrix(0.4 0 0 0.4 240 560)"><g fill="#000000"><rect x="0" y="0" width="100" height="100"/></g></g><g transform="matrix(0.4 0 0 0.4 320 560)"><g fill="#000000"><rect x="0" y="0" width="100" height="100"/></g></g><g transform="matrix(0.4 0 0 0.4 360 560)"><g fill="#000000"><rect x="0" y="0" width="100" height="100"/></g></g><g transform="matrix(0.4 0 0 0.4 400 560)"><g fill="#000000"><rect x="0" y="0" width="100" height="100"/></g></g><g transform="matrix(0.4 0 0 0.4 480 560)"><g fill="#000000"><rect x="0" y="0" width="100" height="100"/></g></g><g transform="matrix(0.4 0 0 0.4 520 560)"><g fill="#000000"><rect x="0" y="0" width="100" height="100"/></g></g><g transform="matrix(0.4 0 0 0.4 560 560)"><g fill="#000000"><rect x="0" y="0" width="100" height="100"/></g></g><g transform="matrix(0.4 0 0 0.4 600 560)"><g fill="#000000"><rect x="0" y="0" width="100" height="100"/></g></g><g transform="matrix(0.4 0 0 0.4 640 560)"><g fill="#000000"><rect x="0" y="0" width="100" height="100"/></g></g><g transform="matrix(0.4 0 0 0.4 680 560)"><g fill="#000000"><rect x="0" y="0" width="100" height="100"/></g></g><g transform="matrix(0.4 0 0 0.4 720 560)"><g fill="#000000"><rect x="0" y="0" width="100" height="100"/></g></g><g transform="matrix(0.4 0 0 0.4 840 560)"><g fill="#000000"><rect x="0" y="0" width="100" height="100"/></g></g><g transform="matrix(0.4 0 0 0.4 960 560)"><g fill="#000000"><rect x="0" y="0" width="100" height="100"/></g></g><g transform="matrix(0.4 0 0 0.4 160 600)"><g fill="#000000"><rect x="0" y="0" width="100" height="100"/></g></g><g transform="matrix(0.4 0 0 0.4 280 600)"><g fill="#000000"><rect x="0" y="0" width="100" height="100"/></g></g><g transform="matrix(0.4 0 0 0.4 360 600)"><g fill="#000000"><rect x="0" y="0" width="100" height="100"/></g></g><g transform="matrix(0.4 0 0 0.4 400 600)"><g fill="#000000"><rect x="0" y="0" width="100" height="100"/></g></g><g transform="matrix(0.4 0 0 0.4 440 600)"><g fill="#000000"><rect x="0" y="0" width="100" height="100"/></g></g><g transform="matrix(0.4 0 0 0.4 480 600)"><g fill="#000000"><rect x="0" y="0" width="100" height="100"/></g></g><g transform="matrix(0.4 0 0 0.4 560 600)"><g fill="#000000"><rect x="0" y="0" width="100" height="100"/></g></g><g transform="matrix(0.4 0 0 0.4 680 600)"><g fill="#000000"><rect x="0" y="0" width="100" height="100"/></g></g><g transform="matrix(0.4 0 0 0.4 720 600)"><g fill="#000000"><rect x="0" y="0" width="100" height="100"/></g></g><g transform="matrix(0.4 0 0 0.4 0 640)"><g fill="#000000"><rect x="0" y="0" width="100" height="100"/></g></g><g transform="matrix(0.4 0 0 0.4 40 640)"><g fill="#000000"><rect x="0" y="0" width="100" height="100"/></g></g><g transform="matrix(0.4 0 0 0.4 80 640)"><g fill="#000000"><rect x="0" y="0" width="100" height="100"/></g></g><g transform="matrix(0.4 0 0 0.4 160 640)"><g fill="#000000"><rect x="0" y="0" width="100" height="100"/></g></g><g transform="matrix(0.4 0 0 0.4 200 640)"><g fill="#000000"><rect x="0" y="0" width="100" height="100"/></g></g><g transform="matrix(0.4 0 0 0.4 240 640)"><g fill="#000000"><rect x="0" y="0" width="100" height="100"/></g></g><g transform="matrix(0.4 0 0 0.4 280 640)"><g fill="#000000"><rect x="0" y="0" width="100" height="100"/></g></g><g transform="matrix(0.4 0 0 0.4 400 640)"><g fill="#000000"><rect x="0" y="0" width="100" height="100"/></g></g><g transform="matrix(0.4 0 0 0.4 520 640)"><g fill="#000000"><rect x="0" y="0" width="100" height="100"/></g></g><g transform="matrix(0.4 0 0 0.4 560 640)"><g fill="#000000"><rect x="0" y="0" width="100" height="100"/></g></g><g transform="matrix(0.4 0 0 0.4 600 640)"><g fill="#000000"><rect x="0" y="0" width="100" height="100"/></g></g><g transform="matrix(0.4 0 0 0.4 640 640)"><g fill="#000000"><rect x="0" y="0" width="100" height="100"/></g></g><g transform="matrix(0.4 0 0 0.4 680 640)"><g fill="#000000"><rect x="0" y="0" width="100" height="100"/></g></g><g transform="matrix(0.4 0 0 0.4 720 640)"><g fill="#000000"><rect x="0" y="0" width="100" height="100"/></g></g><g transform="matrix(0.4 0 0 0.4 760 640)"><g fill="#000000"><rect x="0" y="0" width="100" height="100"/></g></g><g transform="matrix(0.4 0 0 0.4 800 640)"><g fill="#000000"><rect x="0" y="0" width="100" height="100"/></g></g><g transform="matrix(0.4 0 0 0.4 840 640)"><g fill="#000000"><rect x="0" y="0" width="100" height="100"/></g></g><g transform="matrix(0.4 0 0 0.4 960 640)"><g fill="#000000"><rect x="0" y="0" width="100" height="100"/></g></g><g transform="matrix(0.4 0 0 0.4 320 680)"><g fill="#000000"><rect x="0" y="0" width="100" height="100"/></g></g><g transform="matrix(0.4 0 0 0.4 360 680)"><g fill="#000000"><rect x="0" y="0" width="100" height="100"/></g></g><g transform="matrix(0.4 0 0 0.4 400 680)"><g fill="#000000"><rect x="0" y="0" width="100" height="100"/></g></g><g transform="matrix(0.4 0 0 0.4 520 680)"><g fill="#000000"><rect x="0" y="0" width="100" height="100"/></g></g><g transform="matrix(0.4 0 0 0.4 560 680)"><g fill="#000000"><rect x="0" y="0" width="100" height="100"/></g></g><g transform="matrix(0.4 0 0 0.4 600 680)"><g fill="#000000"><rect x="0" y="0" width="100" height="100"/></g></g><g transform="matrix(0.4 0 0 0.4 640 680)"><g fill="#000000"><rect x="0" y="0" width="100" height="100"/></g></g><g transform="matrix(0.4 0 0 0.4 800 680)"><g fill="#000000"><rect x="0" y="0" width="100" height="100"/></g></g><g transform="matrix(0.4 0 0 0.4 880 680)"><g fill="#000000"><rect x="0" y="0" width="100" height="100"/></g></g><g transform="matrix(0.4 0 0 0.4 920 680)"><g fill="#000000"><rect x="0" y="0" width="100" height="100"/></g></g><g transform="matrix(0.4 0 0 0.4 960 680)"><g fill="#000000"><rect x="0" y="0" width="100" height="100"/></g></g><g transform="matrix(0.4 0 0 0.4 320 720)"><g fill="#000000"><rect x="0" y="0" width="100" height="100"/></g></g><g transform="matrix(0.4 0 0 0.4 360 720)"><g fill="#000000"><rect x="0" y="0" width="100" height="100"/></g></g><g transform="matrix(0.4 0 0 0.4 440 720)"><g fill="#000000"><rect x="0" y="0" width="100" height="100"/></g></g><g transform="matrix(0.4 0 0 0.4 640 720)"><g fill="#000000"><rect x="0" y="0" width="100" height="100"/></g></g><g transform="matrix(0.4 0 0 0.4 720 720)"><g fill="#000000"><rect x="0" y="0" width="100" height="100"/></g></g><g transform="matrix(0.4 0 0 0.4 800 720)"><g fill="#000000"><rect x="0" y="0" width="100" height="100"/></g></g><g transform="matrix(0.4 0 0 0.4 960 720)"><g fill="#000000"><rect x="0" y="0" width="100" height="100"/></g></g><g transform="matrix(0.4 0 0 0.4 360 760)"><g fill="#000000"><rect x="0" y="0" width="100" height="100"/></g></g><g transform="matrix(0.4 0 0 0.4 520 760)"><g fill="#000000"><rect x="0" y="0" width="100" height="100"/></g></g><g transform="matrix(0.4 0 0 0.4 640 760)"><g fill="#000000"><rect x="0" y="0" width="100" height="100"/></g></g><g transform="matrix(0.4 0 0 0.4 800 760)"><g fill="#000000"><rect x="0" y="0" width="100" height="100"/></g></g><g transform="matrix(0.4 0 0 0.4 920 760)"><g fill="#000000"><rect x="0" y="0" width="100" height="100"/></g></g><g transform="matrix(0.4 0 0 0.4 400 800)"><g fill="#000000"><rect x="0" y="0" width="100" height="100"/></g></g><g transform="matrix(0.4 0 0 0.4 440 800)"><g fill="#000000"><rect x="0" y="0" width="100" height="100"/></g></g><g transform="matrix(0.4 0 0 0.4 480 800)"><g fill="#000000"><rect x="0" y="0" width="100" height="100"/></g></g><g transform="matrix(0.4 0 0 0.4 520 800)"><g fill="#000000"><rect x="0" y="0" width="100" height="100"/></g></g><g transform="matrix(0.4 0 0 0.4 600 800)"><g fill="#000000"><rect x="0" y="0" width="100" height="100"/></g></g><g transform="matrix(0.4 0 0 0.4 640 800)"><g fill="#000000"><rect x="0" y="0" width="100" height="100"/></g></g><g transform="matrix(0.4 0 0 0.4 680 800)"><g fill="#000000"><rect x="0" y="0" width="100" height="100"/></g></g><g transform="matrix(0.4 0 0 0.4 720 800)"><g fill="#000000"><rect x="0" y="0" width="100" height="100"/></g></g><g transform="matrix(0.4 0 0 0.4 760 800)"><g fill="#000000"><rect x="0" y="0" width="100" height="100"/></g></g><g transform="matrix(0.4 0 0 0.4 800 800)"><g fill="#000000"><rect x="0" y="0" width="100" height="100"/></g></g><g transform="matrix(0.4 0 0 0.4 920 800)"><g fill="#000000"><rect x="0" y="0" width="100" height="100"/></g></g><g transform="matrix(0.4 0 0 0.4 960 800)"><g fill="#000000"><rect x="0" y="0" width="100" height="100"/></g></g><g transform="matrix(0.4 0 0 0.4 360 840)"><g fill="#000000"><rect x="0" y="0" width="100" height="100"/></g></g><g transform="matrix(0.4 0 0 0.4 480 840)"><g fill="#000000"><rect x="0" y="0" width="100" height="100"/></g></g><g transform="matrix(0.4 0 0 0.4 600 840)"><g fill="#000000"><rect x="0" y="0" width="100" height="100"/></g></g><g transform="matrix(0.4 0 0 0.4 760 840)"><g fill="#000000"><rect x="0" y="0" width="100" height="100"/></g></g><g transform="matrix(0.4 0 0 0.4 800 840)"><g fill="#000000"><rect x="0" y="0" width="100" height="100"/></g></g><g transform="matrix(0.4 0 0 0.4 920 840)"><g fill="#000000"><rect x="0" y="0" width="100" height="100"/></g></g><g transform="matrix(0.4 0 0 0.4 320 880)"><g fill="#000000"><rect x="0" y="0" width="100" height="100"/></g></g><g transform="matrix(0.4 0 0 0.4 360 880)"><g fill="#000000"><rect x="0" y="0" width="100" height="100"/></g></g><g transform="matrix(0.4 0 0 0.4 480 880)"><g fill="#000000"><rect x="0" y="0" width="100" height="100"/></g></g><g transform="matrix(0.4 0 0 0.4 520 880)"><g fill="#000000"><rect x="0" y="0" width="100" height="100"/></g></g><g transform="matrix(0.4 0 0 0.4 560 880)"><g fill="#000000"><rect x="0" y="0" width="100" height="100"/></g></g><g transform="matrix(0.4 0 0 0.4 640 880)"><g fill="#000000"><rect x="0" y="0" width="100" height="100"/></g></g><g transform="matrix(0.4 0 0 0.4 760 880)"><g fill="#000000"><rect x="0" y="0" width="100" height="100"/></g></g><g transform="matrix(0.4 0 0 0.4 800 880)"><g fill="#000000"><rect x="0" y="0" width="100" height="100"/></g></g><g transform="matrix(0.4 0 0 0.4 920 880)"><g fill="#000000"><rect x="0" y="0" width="100" height="100"/></g></g><g transform="matrix(0.4 0 0 0.4 960 880)"><g fill="#000000"><rect x="0" y="0" width="100" height="100"/></g></g><g transform="matrix(0.4 0 0 0.4 360 920)"><g fill="#000000"><rect x="0" y="0" width="100" height="100"/></g></g><g transform="matrix(0.4 0 0 0.4 400 920)"><g fill="#000000"><rect x="0" y="0" width="100" height="100"/></g></g><g transform="matrix(0.4 0 0 0.4 440 920)"><g fill="#000000"><rect x="0" y="0" width="100" height="100"/></g></g><g transform="matrix(0.4 0 0 0.4 480 920)"><g fill="#000000"><rect x="0" y="0" width="100" height="100"/></g></g><g transform="matrix(0.4 0 0 0.4 560 920)"><g fill="#000000"><rect x="0" y="0" width="100" height="100"/></g></g><g transform="matrix(0.4 0 0 0.4 600 920)"><g fill="#000000"><rect x="0" y="0" width="100" height="100"/></g></g><g transform="matrix(0.4 0 0 0.4 640 920)"><g fill="#000000"><rect x="0" y="0" width="100" height="100"/></g></g><g transform="matrix(0.4 0 0 0.4 760 920)"><g fill="#000000"><rect x="0" y="0" width="100" height="100"/></g></g><g transform="matrix(0.4 0 0 0.4 320 960)"><g fill="#000000"><rect x="0" y="0" width="100" height="100"/></g></g><g transform="matrix(0.4 0 0 0.4 360 960)"><g fill="#000000"><rect x="0" y="0" width="100" height="100"/></g></g><g transform="matrix(0.4 0 0 0.4 400 960)"><g fill="#000000"><rect x="0" y="0" width="100" height="100"/></g></g><g transform="matrix(0.4 0 0 0.4 520 960)"><g fill="#000000"><rect x="0" y="0" width="100" height="100"/></g></g><g transform="matrix(0.4 0 0 0.4 560 960)"><g fill="#000000"><rect x="0" y="0" width="100" height="100"/></g></g><g transform="matrix(0.4 0 0 0.4 600 960)"><g fill="#000000"><rect x="0" y="0" width="100" height="100"/></g></g><g transform="matrix(0.4 0 0 0.4 640 960)"><g fill="#000000"><rect x="0" y="0" width="100" height="100"/></g></g><g transform="matrix(0.4 0 0 0.4 680 960)"><g fill="#000000"><rect x="0" y="0" width="100" height="100"/></g></g><g transform="matrix(0.4 0 0 0.4 720 960)"><g fill="#000000"><rect x="0" y="0" width="100" height="100"/></g></g><g transform="matrix(0.4 0 0 0.4 760 960)"><g fill="#000000"><rect x="0" y="0" width="100" height="100"/></g></g><g transform="matrix(0.4 0 0 0.4 960 960)"><g fill="#000000"><rect x="0" y="0" width="100" height="100"/></g></g><g transform="scale(2.8 2.8)"><g fill="#000000"><g><rect x="15" y="15" width="70" height="70" fill="none"/><path d="M85 0 15 0 0 0 0 15 0 85 0 100 15 100 85 100 100 100 100 85 100 15 100 0 85 0ZM85 85 15 85 15 15 85 15 85 85Z"/></g></g></g><g transform="matrix(2.8 0 0 2.8 720 0)"><g fill="#000000"><g><rect x="15" y="15" width="70" height="70" fill="none"/><path d="M85 0 15 0 0 0 0 15 0 85 0 100 15 100 85 100 100 100 100 85 100 15 100 0 85 0ZM85 85 15 85 15 15 85 15 85 85Z"/></g></g></g><g transform="matrix(2.8 0 0 2.8 0 720)"><g fill="#000000"><g><rect x="15" y="15" width="70" height="70" fill="none"/><path d="M85 0 15 0 0 0 0 15 0 85 0 100 15 100 85 100 100 100 100 85 100 15 100 0 85 0ZM85 85 15 85 15 15 85 15 85 85Z"/></g></g></g><g transform="matrix(1.2 0 0 1.2 80 80)"><g fill="#000000"><rect x="0" y="0" width="100" height="100"/></g></g><g transform="matrix(1.2 0 0 1.2 800 80)"><g fill="#000000"><rect x="0" y="0" width="100" height="100"/></g></g><g transform="matrix(1.2 0 0 1.2 80 800)"><g fill="#000000"><rect x="0" y="0" width="100" height="100"/></g></g></g></svg>